<?xml version="1.0" encoding="utf-8"?>
<!-- Generator: Adobe Illustrator 23.0.1, SVG Export Plug-In . SVG Version: 6.00 Build 0)  -->
<svg version="1.1" id="Layer_1" xmlns="http://www.w3.org/2000/svg" xmlns:xlink="http://www.w3.org/1999/xlink" x="0px" y="0px"
	 viewBox="0 0 50 50" style="enable-background:new 0 0 50 50;" xml:space="preserve">
<style type="text/css">
	.st0{display:none;fill:#487A45;}
	.st1{fill:#FFFFFF;}
	.st2{fill:#FFFFFF;stroke:#FFFFFF;stroke-miterlimit:10;}
	.st3{fill:none;stroke:#FFFFFF;stroke-width:2;stroke-miterlimit:10;}
</style>
<rect class="st0" width="50" height="50"/>
<path class="st1" d="M44.46,13.36h-39c-0.97,0-1.76,0.8-1.76,1.78v33.08C3.7,49.2,4.49,50,5.46,50h39c0.97,0,1.76-0.8,1.76-1.78
	V15.14C46.22,14.16,45.43,13.36,44.46,13.36z M12.61,41.13c0,0.54-0.44,0.98-0.97,0.98c-0.54,0-0.98-0.44-0.98-0.98V20.64
	c0-0.55,0.44-0.99,0.98-0.99c0.53,0,0.97,0.44,0.97,0.99V41.13z M25.97,41.13c0,0.54-0.43,0.98-0.97,0.98s-0.97-0.44-0.97-0.98
	V20.64c0-0.55,0.43-0.99,0.97-0.99s0.97,0.44,0.97,0.99V41.13z M38.44,41.13c0,0.54-0.44,0.98-0.98,0.98
	c-0.53,0-0.97-0.44-0.97-0.98V20.64c0-0.55,0.44-0.99,0.97-0.99c0.54,0,0.98,0.44,0.98,0.99V41.13z"/>
<path class="st2" d="M47.44,11.19H2.7c-1.19,0-2.15-0.96-2.15-2.15V7.8c0-1.19,0.96-2.15,2.15-2.15h44.74
	c1.19,0,2.15,0.96,2.15,2.15v1.24C49.58,10.23,48.62,11.19,47.44,11.19z"/>
<path class="st3" d="M34.56,6.39h-19.1c-1.07,0-1.93-0.86-1.93-1.93V3.08c0-1.07,0.86-1.93,1.93-1.93h19.1
	c1.07,0,1.93,0.86,1.93,1.93v1.38C36.49,5.53,35.63,6.39,34.56,6.39z"/>
</svg>
